<svg xmlns="http://www.w3.org/2000/svg" viewBox="0 0 1600 900" preserveAspectRatio="xMidYMid slice" role="img" aria-labelledby="t d">
<title id="t">Laundry services for Irving Park</title>
<desc id="d">Stylized neighborhood skyline representing Irving Park</desc>

<defs>
  <linearGradient id="bg" x1="0" y1="0" x2="0" y2="1">
    <stop offset="0%" stop-color="#0A1A3D"/><stop offset="100%" stop-color="#142A55"/>
  </linearGradient>
  <radialGradient id="glow" cx="80%" cy="16%" r="70%">
    <stop offset="0%" stop-color="#D89A55" stop-opacity="0.34"/>
    <stop offset="38%" stop-color="#3A6FB0" stop-opacity="0.20"/>
    <stop offset="100%" stop-color="#0A1A3D" stop-opacity="0"/>
  </radialGradient>
  <radialGradient id="vig" cx="50%" cy="48%" r="80%">
    <stop offset="58%" stop-color="#000" stop-opacity="0"/><stop offset="100%" stop-color="#000" stop-opacity="0.38"/>
  </radialGradient>
  <linearGradient id="panel" x1="0" y1="0" x2="0" y2="1">
    <stop offset="0%" stop-color="#576CBC"/><stop offset="55%" stop-color="#19376D"/><stop offset="100%" stop-color="#0B2447"/>
  </linearGradient>
  <linearGradient id="amber" x1="0" y1="0" x2="0" y2="1">
    <stop offset="0%" stop-color="#F4C77F"/><stop offset="55%" stop-color="#E6A23C"/><stop offset="100%" stop-color="#B07820"/>
  </linearGradient>
  <radialGradient id="glass" cx="36%" cy="28%" r="78%">
    <stop offset="0%" stop-color="#EAF3FF" stop-opacity="0.95"/>
    <stop offset="55%" stop-color="#7BA4D6" stop-opacity="0.7"/>
    <stop offset="100%" stop-color="#1E3458" stop-opacity="0.95"/>
  </radialGradient>
  <linearGradient id="steel" x1="0" y1="0" x2="0" y2="1">
    <stop offset="0%" stop-color="#D7DEE8"/><stop offset="50%" stop-color="#A8B5C5"/><stop offset="100%" stop-color="#3D4A5C"/>
  </linearGradient>
  <linearGradient id="white" x1="0" y1="0" x2="0" y2="1">
    <stop offset="0%" stop-color="#FFFFFF"/><stop offset="100%" stop-color="#D9E2EC"/>
  </linearGradient>
  <filter id="ds" x="-30%" y="-30%" width="160%" height="160%">
    <feGaussianBlur in="SourceAlpha" stdDeviation="9"/><feOffset dy="12"/>
    <feComponentTransfer><feFuncA type="linear" slope="0.30"/></feComponentTransfer>
    <feMerge><feMergeNode/><feMergeNode in="SourceGraphic"/></feMerge>
  </filter>
</defs>
<rect width="1600" height="900" fill="url(#bg)"/>
<rect width="1600" height="900" fill="url(#glow)"/>
<g opacity="0.05" stroke="#D89A55" stroke-width="1"><line x1="0" y1="180" x2="1600" y2="180"/><line x1="0" y1="360" x2="1600" y2="360"/><line x1="0" y1="540" x2="1600" y2="540"/><line x1="0" y1="720" x2="1600" y2="720"/></g>
<rect x="0" y="770" width="1600" height="130" fill="#091532" opacity="0.5"/><line x1="0" y1="770" x2="1600" y2="770" stroke="#576CBC" stroke-width="1" opacity="0.25"/><rect x="740" y="531" width="121" height="239" rx="6" fill="url(#panel)"/><rect x="768" y="580" width="24" height="33" rx="2" fill="#7BA4D6" opacity="0.85"/><rect x="809" y="580" width="24" height="33" rx="2" fill="#7BA4D6" opacity="0.85"/><rect x="768" y="640" width="24" height="33" rx="2" fill="#7BA4D6" opacity="0.85"/><rect x="809" y="640" width="24" height="33" rx="2" fill="#7BA4D6" opacity="0.85"/><rect x="768" y="700" width="24" height="33" rx="2" fill="#7BA4D6" opacity="0.85"/><rect x="809" y="700" width="24" height="33" rx="2" fill="#7BA4D6" opacity="0.85"/><rect x="879" y="478" width="110" height="292" rx="6" fill="url(#panel)"/><rect x="898" y="526" width="16" height="32" rx="2" fill="#7BA4D6" opacity="0.85"/><rect x="926" y="526" width="16" height="32" rx="2" fill="#7BA4D6" opacity="0.85"/><rect x="953" y="526" width="16" height="32" rx="2" fill="#7BA4D6" opacity="0.85"/><rect x="898" y="585" width="16" height="32" rx="2" fill="#7BA4D6" opacity="0.85"/><rect x="926" y="585" width="16" height="32" rx="2" fill="#7BA4D6" opacity="0.85"/><rect x="953" y="585" width="16" height="32" rx="2" fill="#7BA4D6" opacity="0.85"/><rect x="898" y="643" width="16" height="32" rx="2" fill="#7BA4D6" opacity="0.85"/><rect x="926" y="643" width="16" height="32" rx="2" fill="#7BA4D6" opacity="0.85"/><rect x="953" y="643" width="16" height="32" rx="2" fill="#7BA4D6" opacity="0.85"/><rect x="898" y="702" width="16" height="32" rx="2" fill="#7BA4D6" opacity="0.85"/><rect x="926" y="702" width="16" height="32" rx="2" fill="#7BA4D6" opacity="0.85"/><rect x="953" y="702" width="16" height="32" rx="2" fill="#7BA4D6" opacity="0.85"/><rect x="1007" y="647.5" width="139" height="122.49999999999999" rx="4" fill="url(#panel)"/><path d="M 995,647.5 L 1076.5,601.5 L 1158,647.5 Z" fill="#0B2447"/><rect x="1032.02" y="684.25" width="30.580000000000002" height="34.3" fill="#7BA4D6" opacity="0.85"/><rect x="1087.62" y="684.25" width="30.580000000000002" height="34.3" fill="#7BA4D6" opacity="0.85"/><rect x="1062.6" y="714.875" width="27.8" height="55.12499999999999" fill="#E6A23C" opacity="0.9"/><rect x="1164" y="542" width="128" height="228" rx="6" fill="url(#panel)"/><rect x="1186" y="589" width="19" height="31" rx="2" fill="#7BA4D6" opacity="0.85"/><rect x="1218" y="589" width="19" height="31" rx="2" fill="#7BA4D6" opacity="0.85"/><rect x="1250" y="589" width="19" height="31" rx="2" fill="#7BA4D6" opacity="0.85"/><rect x="1186" y="646" width="19" height="31" rx="2" fill="#7BA4D6" opacity="0.85"/><rect x="1218" y="646" width="19" height="31" rx="2" fill="#7BA4D6" opacity="0.85"/><rect x="1250" y="646" width="19" height="31" rx="2" fill="#7BA4D6" opacity="0.85"/><rect x="1186" y="703" width="19" height="31" rx="2" fill="#7BA4D6" opacity="0.85"/><rect x="1218" y="703" width="19" height="31" rx="2" fill="#7BA4D6" opacity="0.85"/><rect x="1250" y="703" width="19" height="31" rx="2" fill="#7BA4D6" opacity="0.85"/><rect x="1310" y="489" width="117" height="281" rx="6" fill="url(#panel)"/><rect x="1337" y="536" width="23" height="31" rx="2" fill="#7BA4D6" opacity="0.85"/><rect x="1376" y="536" width="23" height="31" rx="2" fill="#7BA4D6" opacity="0.85"/><rect x="1337" y="592" width="23" height="31" rx="2" fill="#7BA4D6" opacity="0.85"/><rect x="1376" y="592" width="23" height="31" rx="2" fill="#7BA4D6" opacity="0.85"/><rect x="1337" y="648" width="23" height="31" rx="2" fill="#7BA4D6" opacity="0.85"/><rect x="1376" y="648" width="23" height="31" rx="2" fill="#7BA4D6" opacity="0.85"/><rect x="1337" y="704" width="23" height="31" rx="2" fill="#7BA4D6" opacity="0.85"/><rect x="1376" y="704" width="23" height="31" rx="2" fill="#7BA4D6" opacity="0.85"/><rect x="1445" y="655.2" width="146" height="114.8" rx="4" fill="url(#panel)"/><path d="M 1433,655.2 L 1518.0,609.2 L 1603,655.2 Z" fill="#0B2447"/><rect x="1471.28" y="689.6400000000001" width="32.12" height="32.144000000000005" fill="#7BA4D6" opacity="0.85"/><rect x="1529.68" y="689.6400000000001" width="32.12" height="32.144000000000005" fill="#7BA4D6" opacity="0.85"/><rect x="1503.4" y="718.34" width="29.200000000000003" height="51.66" fill="#E6A23C" opacity="0.9"/><rect x="1609" y="553" width="135" height="217" rx="6" fill="url(#panel)"/><rect x="1640" y="598" width="27" height="30" rx="2" fill="#7BA4D6" opacity="0.85"/><rect x="1686" y="598" width="27" height="30" rx="2" fill="#7BA4D6" opacity="0.85"/><rect x="1640" y="653" width="27" height="30" rx="2" fill="#7BA4D6" opacity="0.85"/><rect x="1686" y="653" width="27" height="30" rx="2" fill="#7BA4D6" opacity="0.85"/><rect x="1640" y="707" width="27" height="30" rx="2" fill="#7BA4D6" opacity="0.85"/><rect x="1686" y="707" width="27" height="30" rx="2" fill="#7BA4D6" opacity="0.85"/><g filter="url(#ds)"><path d="M 984,250 A 56,56 0 1 1 1096,250 L 1040,378.79999999999995 Z" fill="url(#amber)"/><circle cx="1040" cy="250" r="23.52" fill="#F0F4F8"/></g>
<rect width="1600" height="900" fill="url(#vig)"/>
</svg>
