<svg xmlns="http://www.w3.org/2000/svg" viewBox="0 0 1600 900" preserveAspectRatio="xMidYMid slice" role="img" aria-labelledby="t d">
  <title id="t">Wash and Fold Service</title>
  <desc id="d">Stack of folded laundry beside a wicker basket on a counter, with lavender and price tag</desc>
  
<defs>
  <!-- Full background gradient: deep navy with a warm light glow -->
  <linearGradient id="bgBase" x1="0" y1="0" x2="0" y2="1">
    <stop offset="0%"  stop-color="#0A1A3D"/>
    <stop offset="100%" stop-color="#142A55"/>
  </linearGradient>
  <radialGradient id="bgGlow" cx="78%" cy="18%" r="65%">
    <stop offset="0%"  stop-color="#D89A55" stop-opacity="0.35"/>
    <stop offset="35%" stop-color="#3A6FB0" stop-opacity="0.20"/>
    <stop offset="100%" stop-color="#0A1A3D" stop-opacity="0"/>
  </radialGradient>
  <radialGradient id="bgVignette" cx="50%" cy="50%" r="80%">
    <stop offset="60%" stop-color="#000" stop-opacity="0"/>
    <stop offset="100%" stop-color="#000" stop-opacity="0.35"/>
  </radialGradient>

  <!-- Floor gradient at bottom -->
  <linearGradient id="floorGrad" x1="0" y1="0" x2="0" y2="1">
    <stop offset="0%"  stop-color="#142A55" stop-opacity="0"/>
    <stop offset="60%" stop-color="#091532" stop-opacity="0.55"/>
    <stop offset="100%" stop-color="#040A1F" stop-opacity="0.85"/>
  </linearGradient>

  <!-- Chrome / brushed steel -->
  <linearGradient id="chrome" x1="0" y1="0" x2="0" y2="1">
    <stop offset="0%"  stop-color="#F4F7FA"/>
    <stop offset="18%" stop-color="#D7DEE8"/>
    <stop offset="48%" stop-color="#A8B5C5"/>
    <stop offset="78%" stop-color="#6E7C92"/>
    <stop offset="100%" stop-color="#3D4A5C"/>
  </linearGradient>
  <linearGradient id="chromeSide" x1="0" y1="0" x2="1" y2="0">
    <stop offset="0%"  stop-color="#3D4A5C"/>
    <stop offset="30%" stop-color="#7888A0"/>
    <stop offset="70%" stop-color="#A8B5C5"/>
    <stop offset="100%" stop-color="#F4F7FA"/>
  </linearGradient>
  <linearGradient id="panelDark" x1="0" y1="0" x2="0" y2="1">
    <stop offset="0%"  stop-color="#202B3E"/>
    <stop offset="100%" stop-color="#1B2330"/>
  </linearGradient>

  <!-- Glass / washer door -->
  <radialGradient id="glassDoor" cx="35%" cy="28%" r="75%">
    <stop offset="0%"  stop-color="#EAF3FF" stop-opacity="0.95"/>
    <stop offset="22%" stop-color="#C7DBF2" stop-opacity="0.85"/>
    <stop offset="55%" stop-color="#7BA4D6" stop-opacity="0.75"/>
    <stop offset="100%" stop-color="#1E3458" stop-opacity="0.95"/>
  </radialGradient>
  <linearGradient id="doorRing" x1="0" y1="0" x2="0" y2="1">
    <stop offset="0%"  stop-color="#C5CCD8"/>
    <stop offset="50%" stop-color="#7A8497"/>
    <stop offset="100%" stop-color="#1B2330"/>
  </linearGradient>

  <!-- LCD display -->
  <linearGradient id="lcdGrad" x1="0" y1="0" x2="0" y2="1">
    <stop offset="0%"  stop-color="#0E1A2F"/>
    <stop offset="100%" stop-color="#1E3458"/>
  </linearGradient>

  <!-- Linen / white fabric -->
  <linearGradient id="linenGrad" x1="0" y1="0" x2="0" y2="1">
    <stop offset="0%"  stop-color="#F8F4EC"/>
    <stop offset="100%" stop-color="#E4DDC9"/>
  </linearGradient>

  <!-- Wicker basket -->
  <linearGradient id="wickerLight" x1="0" y1="0" x2="0" y2="1">
    <stop offset="0%"  stop-color="#DBB07A"/>
    <stop offset="100%" stop-color="#9F7541"/>
  </linearGradient>
  <radialGradient id="wickerBowl" cx="50%" cy="30%" r="70%">
    <stop offset="0%"  stop-color="#DBB07A"/>
    <stop offset="60%" stop-color="#9F7541"/>
    <stop offset="100%" stop-color="#5D4220"/>
  </radialGradient>

  <!-- Drop shadows -->
  <filter id="ds-soft" x="-30%" y="-30%" width="160%" height="160%">
    <feGaussianBlur in="SourceAlpha" stdDeviation="10"/>
    <feOffset dy="14"/>
    <feComponentTransfer><feFuncA type="linear" slope="0.32"/></feComponentTransfer>
    <feMerge><feMergeNode/><feMergeNode in="SourceGraphic"/></feMerge>
  </filter>
  <filter id="ds-tight" x="-20%" y="-20%" width="140%" height="140%">
    <feGaussianBlur in="SourceAlpha" stdDeviation="4"/>
    <feOffset dy="6"/>
    <feComponentTransfer><feFuncA type="linear" slope="0.40"/></feComponentTransfer>
    <feMerge><feMergeNode/><feMergeNode in="SourceGraphic"/></feMerge>
  </filter>
  <filter id="glow-warm" x="-30%" y="-30%" width="160%" height="160%">
    <feGaussianBlur stdDeviation="6"/>
  </filter>
  <filter id="steam-blur" x="-30%" y="-30%" width="160%" height="160%">
    <feGaussianBlur stdDeviation="1.2"/>
  </filter>
</defs>
  
  <!-- Full background -->
  <rect width="1600" height="900" fill="url(#bgBase)"/>
  <rect width="1600" height="900" fill="url(#bgGlow)"/>

  <!-- Subtle horizontal light streaks (very faint) -->
  <g opacity="0.06" stroke="#D89A55" stroke-width="1" fill="none">
    <line x1="0" y1="160" x2="1600" y2="160"/>
    <line x1="0" y1="320" x2="1600" y2="320"/>
    <line x1="0" y1="480" x2="1600" y2="480"/>
    <line x1="0" y1="640" x2="1600" y2="640"/>
  </g>

  <!-- Floor wash at bottom for grounding -->
  <rect x="0" y="540" width="1600" height="360" fill="url(#floorGrad)"/>

  <!-- Vignette to focus the eye on the right -->
  <rect width="1600" height="900" fill="url(#bgVignette)"/>
  
  <defs>
    <linearGradient id="counterGrad" x1="0" y1="0" x2="0" y2="1">
      <stop offset="0%"  stop-color="#3B5278"/>
      <stop offset="50%" stop-color="#23365C"/>
      <stop offset="100%" stop-color="#0F1E40"/>
    </linearGradient>
    <radialGradient id="counterLight" cx="65%" cy="20%" r="55%">
      <stop offset="0%"  stop-color="#D89A55" stop-opacity="0.30"/>
      <stop offset="100%" stop-color="#D89A55" stop-opacity="0"/>
    </radialGradient>
  </defs>
  <!-- Counter top (front portion) -->
  <path d="M 0 680 L 1600 680 L 1600 900 L 0 900 Z" fill="url(#counterGrad)"/>
  <rect x="0" y="680" width="1600" height="4" fill="#5A7BAA" opacity="0.8"/>
  <rect width="1600" height="900" fill="url(#counterLight)"/>

<g filter="url(#ds-soft)">
<rect x="910.0" y="639.0" width="348" height="41.0" rx="3" fill="#C9C1AB"/>
<path d="M 910.0 639.0 L 918.0 630 L 1266.0 630 L 1258.0 639.0 Z" fill="#F8F4EC"/>
<path d="M 1258.0 639.0 L 1266.0 630 L 1266.0 669.0 L 1258.0 678 Z" fill="#7C7458"/>
<line x1="922.0" y1="660.0" x2="1250.0" y2="660.0" stroke="#7C7458" stroke-width="1" opacity="0.5"/>
<line x1="1232.0" y1="643.0" x2="1232.0" y2="674" stroke="#7C7458" stroke-width="1" opacity="0.4"/>
<line x1="918.0" y1="630" x2="1266.0" y2="630" stroke="#FFFFFF" stroke-width="1" opacity="0.45"/>
<rect x="918.0" y="586.0" width="352" height="44.0" rx="3" fill="#6A8FB8"/>
<path d="M 918.0 586.0 L 926.0 576 L 1278.0 576 L 1270.0 586.0 Z" fill="#A8C5E4"/>
<path d="M 1270.0 586.0 L 1278.0 576 L 1278.0 618.0 L 1270.0 628 Z" fill="#3D5B82"/>
<line x1="930.0" y1="608.0" x2="1262.0" y2="608.0" stroke="#3D5B82" stroke-width="1" opacity="0.5"/>
<line x1="1244.0" y1="590.0" x2="1244.0" y2="624" stroke="#3D5B82" stroke-width="1" opacity="0.4"/>
<line x1="926.0" y1="576" x2="1278.0" y2="576" stroke="#FFFFFF" stroke-width="1" opacity="0.45"/>
<rect x="910.0" y="529.0" width="356" height="47.0" rx="3" fill="#8A7E40"/>
<path d="M 910.0 529.0 L 918.0 518 L 1274.0 518 L 1266.0 529.0 Z" fill="#A89853"/>
<path d="M 1266.0 529.0 L 1274.0 518 L 1274.0 563.0 L 1266.0 574 Z" fill="#574E28"/>
<line x1="922.0" y1="552.0" x2="1258.0" y2="552.0" stroke="#574E28" stroke-width="1" opacity="0.5"/>
<line x1="1240.0" y1="533.0" x2="1240.0" y2="570" stroke="#574E28" stroke-width="1" opacity="0.4"/>
<line x1="918.0" y1="518" x2="1274.0" y2="518" stroke="#FFFFFF" stroke-width="1" opacity="0.45"/>
<rect x="926.0" y="473.0" width="344" height="45.0" rx="3" fill="#A0584C"/>
<path d="M 926.0 473.0 L 934.0 462 L 1278.0 462 L 1270.0 473.0 Z" fill="#C97B7B"/>
<path d="M 1270.0 473.0 L 1278.0 462 L 1278.0 505.0 L 1270.0 516 Z" fill="#6B3328"/>
<line x1="938.0" y1="495.0" x2="1262.0" y2="495.0" stroke="#6B3328" stroke-width="1" opacity="0.5"/>
<line x1="1244.0" y1="477.0" x2="1244.0" y2="512" stroke="#6B3328" stroke-width="1" opacity="0.4"/>
<line x1="934.0" y1="462" x2="1278.0" y2="462" stroke="#FFFFFF" stroke-width="1" opacity="0.45"/>
<rect x="910.0" y="414.0" width="352" height="48.0" rx="3" fill="#6D8E6C"/>
<path d="M 910.0 414.0 L 918.0 402 L 1270.0 402 L 1262.0 414.0 Z" fill="#8DA88B"/>
<path d="M 1262.0 414.0 L 1270.0 402 L 1270.0 448.0 L 1262.0 460 Z" fill="#3F5C3F"/>
<line x1="922.0" y1="437.0" x2="1254.0" y2="437.0" stroke="#3F5C3F" stroke-width="1" opacity="0.5"/>
<line x1="1236.0" y1="418.0" x2="1236.0" y2="456" stroke="#3F5C3F" stroke-width="1" opacity="0.4"/>
<line x1="918.0" y1="402" x2="1270.0" y2="402" stroke="#FFFFFF" stroke-width="1" opacity="0.45"/>
<rect x="922.0" y="355.0" width="348" height="47.0" rx="3" fill="#C9C1AB"/>
<path d="M 922.0 355.0 L 930.0 344 L 1278.0 344 L 1270.0 355.0 Z" fill="#F8F4EC"/>
<path d="M 1270.0 355.0 L 1278.0 344 L 1278.0 389.0 L 1270.0 400 Z" fill="#7C7458"/>
<line x1="934.0" y1="378.0" x2="1262.0" y2="378.0" stroke="#7C7458" stroke-width="1" opacity="0.5"/>
<line x1="1244.0" y1="359.0" x2="1244.0" y2="396" stroke="#7C7458" stroke-width="1" opacity="0.4"/>
<line x1="930.0" y1="344" x2="1278.0" y2="344" stroke="#FFFFFF" stroke-width="1" opacity="0.45"/>

    <g transform="translate(1180.0, 358)">
      <rect width="76" height="24" rx="3" fill="#E6A23C" opacity="0.95"/>
      <text x="38" y="16" text-anchor="middle" font-family="Georgia, serif" font-weight="800" font-size="10" fill="#0B2447" letter-spacing="1.5">FRESH</text>
    </g>
<rect x="910.0" y="296.0" width="344" height="48.0" rx="3" fill="#6A8FB8"/>
<path d="M 910.0 296.0 L 918.0 284 L 1262.0 284 L 1254.0 296.0 Z" fill="#A8C5E4"/>
<path d="M 1254.0 296.0 L 1262.0 284 L 1262.0 330.0 L 1254.0 342 Z" fill="#3D5B82"/>
<line x1="922.0" y1="319.0" x2="1246.0" y2="319.0" stroke="#3D5B82" stroke-width="1" opacity="0.5"/>
<line x1="1228.0" y1="300.0" x2="1228.0" y2="338" stroke="#3D5B82" stroke-width="1" opacity="0.4"/>
<line x1="918.0" y1="284" x2="1262.0" y2="284" stroke="#FFFFFF" stroke-width="1" opacity="0.45"/>
</g>

  <g transform="translate(830, 580)" filter="url(#ds-soft)">
    <!-- back rim (drawn first, behind body) -->
    <ellipse cx="0" cy="0" rx="180" ry="34" fill="#9F7541"/>
    <ellipse cx="0" cy="-3" rx="172" ry="28" fill="#5D4220"/>
    <!-- body -->
    <path d="M -180 0 Q -180 130 0 145 Q 180 130 180 0 Z" fill="url(#wickerBowl)"/>
    <!-- weave hatching, clipped to body -->
    <clipPath id="basketClip"><path d="M -180 0 Q -180 130 0 145 Q 180 130 180 0 Z"/></clipPath>
    <g clip-path="url(#basketClip)" stroke="#5D4220" stroke-width="1.4" opacity="0.55">
      <!-- vertical strands -->
      <path d="M -170 0 Q -170 100 -170 140" fill="none"/>
      <path d="M -140 0 Q -140 105 -140 140" fill="none"/>
      <path d="M -100 0 Q -100 115 -100 145" fill="none"/>
      <path d="M -60 0 Q -60 120 -60 148" fill="none"/>
      <path d="M -20 0 Q -20 125 -20 150" fill="none"/>
      <path d="M 20 0 Q 20 125 20 150" fill="none"/>
      <path d="M 60 0 Q 60 120 60 148" fill="none"/>
      <path d="M 100 0 Q 100 115 100 145" fill="none"/>
      <path d="M 140 0 Q 140 105 140 140" fill="none"/>
      <path d="M 170 0 Q 170 100 170 140" fill="none"/>
      <!-- horizontal weave rows (curved) -->
      <path d="M -180 18 Q 0 30 180 18" fill="none"/>
      <path d="M -180 44 Q 0 56 180 44" fill="none"/>
      <path d="M -180 70 Q 0 82 180 70" fill="none"/>
      <path d="M -180 96 Q 0 110 180 96" fill="none"/>
      <path d="M -178 120 Q 0 132 178 120" fill="none"/>
    </g>
    <!-- dark inner shadow at the very top to give "opening" depth -->
    <ellipse cx="0" cy="0" rx="170" ry="28" fill="none" stroke="#5D4220" stroke-width="3" opacity="0.55"/>
    <!-- front rim (drawn last to overlap the body top) -->
    <ellipse cx="0" cy="0" rx="180" ry="34" fill="none" stroke="#5D4220" stroke-width="2.5"/>
    <ellipse cx="0" cy="-2" rx="180" ry="32" fill="none" stroke="#DBB07A" stroke-width="2" opacity="0.5"/>
    <!-- handles -->
    <path d="M -175 -5 q -22 -2 -22 -22 q 0 -16 16 -16" fill="none" stroke="#5D4220" stroke-width="4.5" stroke-linecap="round"/>
    <path d="M 175 -5 q 22 -2 22 -22 q 0 -16 -16 -16" fill="none" stroke="#5D4220" stroke-width="4.5" stroke-linecap="round"/>
    <!-- a hint of a folded towel poking out of the top of the basket -->
    <rect x="-50" y="-14" width="100" height="20" rx="3" fill="#F8F4EC"/>
    <rect x="-50" y="-14" width="100" height="2" fill="#FFFFFF" opacity="0.5"/>
    <line x1="-30" y1="-2" x2="30" y2="-2" stroke="#A89B7A" stroke-width="1" opacity="0.4"/>
  </g>

  <g transform="translate(870, 570) rotate(-22)">
    <line x1="0" y1="0" x2="0" y2="-140" stroke="#4A6B4F" stroke-width="2.5" stroke-linecap="round"/>
    <g fill="#876FB0">
      <ellipse cx="-4" cy="-118" rx="4" ry="9"/>
      <ellipse cx="4"  cy="-128" rx="4" ry="9"/>
      <ellipse cx="-4" cy="-138" rx="4" ry="9"/>
      <ellipse cx="4"  cy="-146" rx="4" ry="8"/>
      <ellipse cx="-3" cy="-154" rx="3" ry="7"/>
    </g>
    <!-- small leaves -->
    <ellipse cx="-8" cy="-80" rx="4" ry="10" fill="#5C7F62" transform="rotate(-30, -8, -80)"/>
    <ellipse cx="8" cy="-60" rx="4" ry="10" fill="#5C7F62" transform="rotate(30, 8, -60)"/>
  </g>

  <g fill="#F4C77F" opacity="0.7">
    <circle cx="930" cy="240" r="2.5"/>
    <circle cx="1480" cy="320" r="2"/>
    <circle cx="820" cy="430" r="2"/>
    <circle cx="1520" cy="500" r="2.5"/>
  </g>

  <g transform="translate(1280, 200)">
    <line x1="0" y1="0" x2="0" y2="100" stroke="#CFD6E0" stroke-width="1.5" opacity="0.85"/>
    <g transform="translate(0, 100)" filter="url(#ds-tight)">
      <path d="M -64 0 L 52 0 L 74 26 L 52 52 L -64 52 L -64 0 Z" fill="#F8F4EC"/>
      <path d="M -64 0 L 52 0 L 74 26 L 52 52 L -64 52 L -64 0 Z" fill="none" stroke="#3A4456" stroke-width="1.5"/>
      <circle cx="-54" cy="26" r="4" fill="#3A4456"/>
      <circle cx="-54" cy="26" r="2" fill="#F8F4EC"/>
      <text x="4" y="22" text-anchor="middle" font-family="Georgia, serif" font-size="11" font-weight="700" fill="#3A4456" letter-spacing="2">FROM</text>
      <text x="4" y="42" text-anchor="middle" font-family="Georgia, serif" font-size="17" font-weight="800" fill="#19376D">$1.50/lb</text>
    </g>
  </g>
</svg>